<svg width="40" height="40" viewBox="0 0 40 40" fill="none" xmlns="http://www.w3.org/2000/svg">
<path d="M0 20C0 8.95431 8.95431 0 20 0C31.0457 0 40 8.95431 40 20C40 31.0457 31.0457 40 20 40C8.95431 40 0 31.0457 0 20Z" fill="#F7F7F7"/>
<path d="M21.6663 16.6663H26.6663V21.6663H21.6663V33.3325H16.6663V21.6663H11.6663V16.6663H16.6663V14.575C16.6663 12.5938 17.29 10.09 18.53 8.72126C19.77 7.35001 21.3188 6.66626 23.1738 6.66626H26.6675V11.6663H23.1675C22.3375 11.6663 21.6675 12.3363 21.6675 13.165V16.6663H21.6663Z" fill="#134731"/>
</svg>
