<svg width="40" height="40" viewBox="0 0 40 40" fill="none" xmlns="http://www.w3.org/2000/svg">
<path d="M0 20C0 8.95431 8.95431 0 20 0C31.0457 0 40 8.95431 40 20C40 31.0457 31.0457 40 20 40C8.95431 40 0 31.0457 0 20Z" fill="#F7F7F7"/>
<path d="M20.0088 7.7017C24.019 7.7017 24.4938 7.71928 26.0709 7.78961C27.5366 7.85407 28.3281 8.10021 28.8558 8.30533C29.5534 8.57492 30.0576 8.90311 30.5794 9.42469C31.1071 9.95214 31.4295 10.4503 31.7051 11.1477C31.9103 11.6751 32.1565 12.4722 32.221 13.9314C32.2914 15.5138 32.309 15.9885 32.309 19.9912C32.309 23.9939 32.2914 24.4745 32.221 26.051C32.1565 27.5161 31.9103 28.3073 31.7051 28.8347C31.4354 29.5321 31.1071 30.0361 30.5853 30.5577C30.0576 31.0852 29.5593 31.4075 28.8616 31.6829C28.334 31.8881 27.5366 32.1342 26.0768 32.1987C24.4938 32.269 24.019 32.2866 20.0147 32.2866C16.0104 32.2866 15.5296 32.269 13.9525 32.1987C12.4868 32.1342 11.6953 31.8881 11.1677 31.6829C10.47 31.4134 9.9658 31.0852 9.44401 30.5636C8.91636 30.0361 8.5939 29.538 8.31835 28.8406C8.11315 28.3131 7.86691 27.5161 7.80242 26.0568C7.73207 24.4745 7.71448 23.9998 7.71448 19.9971C7.71448 15.9943 7.73207 15.5138 7.80242 13.9373C7.86691 12.4722 8.11315 11.681 8.31835 11.1535C8.58804 10.4561 8.91636 9.95214 9.43815 9.43055C9.9658 8.90311 10.4641 8.58078 11.1618 8.30533C11.6895 8.10021 12.4868 7.85407 13.9466 7.78961C15.5237 7.71928 15.9986 7.7017 20.0088 7.7017ZM20.0088 5C15.9341 5 15.4241 5.01758 13.8235 5.08791C12.2288 5.15823 11.1325 5.4161 10.1827 5.78531C9.19191 6.1721 8.35353 6.68197 7.52101 7.52002C6.68263 8.35222 6.17256 9.19027 5.78562 10.1748C5.41626 11.1301 5.1583 12.2202 5.08794 13.8142C5.01759 15.42 5 15.9299 5 20.0029C5 24.076 5.01759 24.5859 5.08794 26.1858C5.1583 27.7798 5.41626 28.8758 5.78562 29.8252C6.17256 30.8156 6.68263 31.6536 7.52101 32.4858C8.35353 33.318 9.19191 33.8338 10.1769 34.2147C11.1325 34.5839 12.223 34.8418 13.8177 34.9121C15.4182 34.9824 15.9283 35 20.0029 35C24.0776 35 24.5876 34.9824 26.1882 34.9121C27.7829 34.8418 28.8792 34.5839 29.829 34.2147C30.814 33.8338 31.6523 33.318 32.4849 32.4858C33.3174 31.6536 33.8333 30.8156 34.2144 29.831C34.5837 28.8758 34.8417 27.7857 34.9121 26.1916C34.9824 24.5917 35 24.0819 35 20.0088C35 15.9357 34.9824 15.4259 34.9121 13.8259C34.8417 12.2319 34.5837 11.136 34.2144 10.1866C33.845 9.19027 33.335 8.35222 32.4966 7.52002C31.6641 6.68783 30.8257 6.1721 29.8407 5.79117C28.8851 5.42196 27.7946 5.16409 26.1999 5.09377C24.5935 5.01758 24.0834 5 20.0088 5V5Z" fill="#134731"/>
<path d="M20.0088 12.2964C15.7524 12.2964 12.2992 15.7482 12.2992 20.003C12.2992 24.2577 15.7524 27.7096 20.0088 27.7096C24.2652 27.7096 27.7184 24.2577 27.7184 20.003C27.7184 15.7482 24.2652 12.2964 20.0088 12.2964ZM20.0088 25.002C17.2474 25.002 15.0078 22.7633 15.0078 20.003C15.0078 17.2427 17.2474 15.0039 20.0088 15.0039C22.7702 15.0039 25.0098 17.2427 25.0098 20.003C25.0098 22.7633 22.7702 25.002 20.0088 25.002Z" fill="#134731"/>
<path d="M29.8232 11.9916C29.8232 12.9853 29.0174 13.7907 28.0233 13.7907C27.0292 13.7907 26.2234 12.9853 26.2234 11.9916C26.2234 10.9979 27.0292 10.1924 28.0233 10.1924C29.0174 10.1924 29.8232 10.9979 29.8232 11.9916Z" fill="#134731"/>
</svg>
