<svg width="40" height="40" viewBox="0 0 40 40" fill="none" xmlns="http://www.w3.org/2000/svg">
<path d="M0 20C0 8.95431 8.95431 0 20 0C31.0457 0 40 8.95431 40 20C40 31.0457 31.0457 40 20 40C8.95431 40 0 31.0457 0 20Z" fill="#F7F7F7"/>
<path d="M20.81 7.95117C13.76 7.95117 10.205 13.0062 10.205 17.2212C10.205 19.7762 11.1737 22.0449 13.2437 22.8899C13.585 23.0299 13.8887 22.8962 13.9875 22.5212C14.0562 22.2599 14.2175 21.5999 14.2912 21.3262C14.3925 20.9574 14.3525 20.8262 14.08 20.5012C13.4812 19.7974 13.1 18.8812 13.1 17.5899C13.1 13.8399 15.905 10.4837 20.4062 10.4837C24.3925 10.4837 26.5825 12.9224 26.5825 16.1699C26.5825 20.4499 24.6875 24.0599 21.8762 24.0599C20.3225 24.0599 19.1612 22.7762 19.535 21.2012C19.9812 19.3174 20.845 17.2899 20.845 15.9349C20.845 14.7199 20.1912 13.7087 18.845 13.7087C17.2587 13.7087 15.9812 15.3487 15.9812 17.5487C15.9812 18.9499 16.4575 19.8974 16.4575 19.8974C16.4575 19.8974 14.8312 26.7787 14.5475 27.9837C13.9812 30.3837 14.4625 33.3274 14.5062 33.6249C14.5275 33.7987 14.755 33.8437 14.8562 33.7099C15.0025 33.5187 16.895 31.1812 17.535 28.8512C17.72 28.1912 18.58 24.7762 18.58 24.7762C19.0987 25.7574 20.6012 26.6224 22.205 26.6224C26.9762 26.6224 30.2112 22.2762 30.2112 16.4512C30.2062 12.0512 26.4775 7.95117 20.8112 7.95117H20.81Z" fill="#134731"/>
</svg>
