<svg width="30" height="70" viewBox="0 0 30 70" fill="none" xmlns="http://www.w3.org/2000/svg">
<path d="M29.6512 37.4997C29.6512 37.812 29.4517 38.1636 29.1531 38.3982L5.93029 56.6015C5.63098 56.8361 5.18308 56.992 4.78401 56.992C4.38494 56.992 3.93703 56.8356 3.63773 56.6015L1.14633 54.6486C0.847031 54.414 0.648193 54.1017 0.648193 53.7501C0.648193 53.4378 0.847728 53.0862 1.14633 52.8516L20.7308 37.5003L1.14633 22.1489C0.847031 21.9143 0.648193 21.5632 0.648193 21.2504C0.648193 20.9376 0.847728 20.5865 1.14633 20.3519L3.63773 18.399C3.93703 18.1644 4.38494 18.0085 4.78401 18.0085C5.18308 18.0085 5.63098 18.165 5.93029 18.399L29.1531 36.6023C29.4524 36.8369 29.6512 37.188 29.6512 37.5008V37.4997Z" fill="#666666"/>
</svg>
