<svg width="40" height="40" viewBox="0 0 40 40" fill="none" xmlns="http://www.w3.org/2000/svg">
<path d="M0 20C0 8.95431 8.95431 0 20 0C31.0457 0 40 8.95431 40 20C40 31.0457 31.0457 40 20 40C8.95431 40 0 31.0457 0 20Z" fill="#F7F7F7"/>
<path d="M28.4299 8.75572L5.83808 17.9356C4.92895 18.3631 4.62146 19.2193 5.6183 19.6839L11.4141 21.6246L25.4275 12.4989C26.1927 11.9259 26.976 12.0787 26.302 12.7089L14.2663 24.1918L13.8882 29.0513C14.2384 29.8016 14.8796 29.8051 15.2886 29.4322L18.6185 26.1122L24.3214 30.612C25.6459 31.4383 26.3666 30.905 26.6516 29.3906L30.3922 10.7271C30.7806 8.86286 30.1182 8.04149 28.4299 8.75572Z" fill="#134731"/>
</svg>
